<svg xmlns="http://www.w3.org/2000/svg" viewBox="0 0 345.81 462.49"><g id="Calque_2" data-name="Calque 2"><g id="Calque_2-2" data-name="Calque 2"><path d="M209.77,305.22c-11.66,3.72-15.36,12.87-16.07,23.88-1,16.14,2.52,31.77,5.47,47.47,2.66,14.22,6,28.33,6.82,42.85.69,11.58-3,21.64-10,30.61-12.91,16.73-33.71,16.55-46.67-.18-9.05-11.68-11.14-24.84-9.09-39.14,3-20.91,8.51-41.38,11-62.37,1.16-9.91,2-19.91-1.39-29.66-2.84-8.22-8.43-13.14-17.21-13.64-19-1.08-37.95-.06-56.92-.26a49.94,49.94,0,0,1-7.45-.46,19.1,19.1,0,0,1-16.4-19.06c-.1-8.82.24-17.66-.09-26.47-.15-4,1.34-4.52,4.84-4.52q102.41.16,204.8.12c9.16,0,18.32.13,27.48-.12,3.6-.1,5,.7,4.84,4.62-.3,8.32,0,16.65-.05,25-.06,13.31-9.16,21.56-22.54,20.49-13.05.82-26.12.07-39.17.38C224.59,304.91,217.16,304.11,209.77,305.22Z" style="fill:#fff"/><path d="M285.73,135.31c2.44,1.43,5.21,2.42,6.8,5,.61,7.66-1.11,15.28-.41,22.95,0,5.78,0,11.55.06,17.33.34,16.76-.52,33.53.48,50.29.13,2.19-.28,3.94-3.18,3.87-10.94-.28-21.87,1.16-32.8.24-2.27-2.53.18-2.57,1.6-2.65,4.15-.24,8.3-.07,12.46-.1,3.27,0,6.55.06,9.3,0-7,.06-14.42,0-21.89,0-2.44,0-4.86.05-6.16,2.69-5.25.05-6.74-1.34-5.52-5.92.87-3.24-.2-6.25-.19-9.36.11-26.94,0-53.89.12-80.83,0-5.79,1.26-11.54.87-17.38a28.39,28.39,0,0,0-.48-4.93c-1.15-4.64-.75-5,4.28-4.34L274.81,128a13.6,13.6,0,0,0,6.06,4.14v0C281.15,135.24,284.23,134.05,285.73,135.31Z" style="fill:#ec1991"/><path d="M223.06,93.17c5.62,3.1,10.65,7.07,15.81,10.85a1.07,1.07,0,0,1,.3.82c0,.29-.06.44-.12.44-3,1.8-4.53-1.93-7.56-1.83,2.61,3.15,6.59,2,9.31,3.76a3.52,3.52,0,0,1,.76,2.36c-3,36.33-.5,72.71-1.33,109.05,0,2,.25,4-.22,5.95.63-1.54.23-3.15.23-4.71,0-33.25,0-66.5.12-99.75,0-1.54-1.71-4.15,1.54-4.85,2.7,6.3,2.07,13.1,2.16,19.58.41,29.08.18,58.17.18,87.25,0,2.51,0,5-1.9,7a5,5,0,0,1-3.15,1.27c-9.69.66-19.39.4-29.09.15a3.89,3.89,0,0,1-2.63-1.23c-1.21-3.09-.26-6.25-.27-9.37q-.07-56,0-112.08c0-2.66-.26-5.3-.52-8-.24-2.41,0-4.69,2.57-5.9a2.93,2.93,0,0,1,2.44.06c1.41,1.36,2.78,1.93,4.84.83S220.53,92.42,223.06,93.17Z" style="fill:#179dd7"/><path d="M294.7,324.29a1.3,1.3,0,0,0,1.71.56c8.06-4.36,17.07-5.73,25.7-8.32,10.38-3.12,19.5-15.69,19.67-26.64,0-2.1-1.36-5.92,1.24-6,2.94-.11.86,3.73,1.61,5.68a6.23,6.23,0,0,1,.23,1c2.95,9.1-1.71,17-3.89,25.35-5.21,19.85-20.29,30.13-37.53,38.06a29.78,29.78,0,0,1-12.5,2.29c-22.46-.07-44.93-.14-67.39,0-3.62,0-5-.71-4.85-4.57.32-7.47.2-15,.26-22.45,2.16-2.92,5.35-1.68,7.82-1.32,10.64,1.57,21.2.41,31.81-.06a125,125,0,0,1,17.94.22c3.79.37,7.68.61,11-1.91,1.68-.64,3.55-.62,5.14-1.54C293.31,324.24,293.93,323.82,294.7,324.29Z"/><path d="M241.75,229.26a27.24,27.24,0,0,0,1-8.34c-.05-22.94-.28-45.89.07-68.83.18-12.3-1.39-24.51-1.1-36.79-1.55-2.15.11-4.77-1-7l-1-1c-.54-.57-1.63-.85-1-2l.12-1.29c2.74,1.09,4.94,3,7.2,4.81a115.07,115.07,0,0,1,1.17,20.74c-.91,32.24-.53,64.48-.29,96.72,0,3,.16,6.26-1.27,9.17-16.05.76-32.1.68-48.15.08a3.19,3.19,0,0,1-.61-1.71c-1.16-20.63-.4-41.29-.51-61.93-.15-26.32,0-52.64-.1-79,0-4.84.91-9.55.95-14.36a2.26,2.26,0,0,1,.61-1.62c1.78,0,2.48,1.78,3.9,2.36,1.44,1,3.09,2,1.32,4.07-1.36,4.24-2.81,8.48-2.81,13q-.06,62.45,0,124.9c0,.43-.37,1,.39,1.17.13.69.62-.36.08,0-.21.15-.35,0-.36-.34-.19-5.15-.07-10.3-.08-15.45,0-35.47.07-70.94-.08-106.41,0-5.57,1.34-10.77,2.51-16,.42-.64.91-2.07,1.38-1.69,1.19.95,1.9.78,2.73-.24a142.83,142.83,0,0,1,16.23,10.9c-2.52,1.22-5,2.51-7.57,3.64-1.65.74-3.29,1-3.72-1.5.77-1,2.08-1.28,3-2,.36-.47.49-.9-.21-1.21-1.59-.26-3.33.09-4.57-1.78-.18,1.76,1.6,2.61.74,4-2.39.83-3.71,2.44-2.79,5,1.07,2.93.77,5.91.77,8.88q0,56.38,0,112.78a27,27,0,0,1-1,8.34,5.16,5.16,0,0,0,4,1.54c8.72.19,17.45,0,26.17.12C239.4,230.94,241,230.91,241.75,229.26Z" style="fill:#199dd4"/><path d="M167.43,63.17c3.19-3.49,6.41-3.77,10.28-.75,4.51,3.52,9.38,6.59,14.09,9.85.95,1.29,3.16,1.88,2.29,4.18-1.33,2.08-.94,4.42-1,6.71,0,.59,0,1.17-.09,1.75a35.58,35.58,0,0,0-.27,14.35,37.84,37.84,0,0,1,.42,6.46q0,56.39,0,112.79a27.65,27.65,0,0,1-.21,5c-.49,2.72-1.79,4.69-4.91,4.6s-5.06-1.44-5.58-4.6a42.7,42.7,0,0,1-.29-7q0-61.38,0-122.77c0-3.26.58-6.81-3.12-8.78-1.41-1.08-2.59-2.38-1-4.06,2.48-2.58,5.17-1,8,.08.09-1.78-1.2-2.19-2.17-2.82-1.93-.83-3.14-2.55-4.75-3.78-.73-.52-1.47-1-2.18-1.61-.88-.79-1.67-1.54-1.1-2.94,1.74-4.36.55-6-4.31-6.08C170.18,63.74,168.64,64.65,167.43,63.17Z" style="fill:#adcc31"/><path d="M52.39,235.5c-.94-1.73-.49-3.6-.49-5.4,0-28.48.05-57-.07-85.43a7.17,7.17,0,0,1,3.66-6.88c13.5-8.86,26.87-17.91,40.27-26.91,1.25-.84,2.42-1.77,4-1.82,1.89,1.86,1.49,4.25,1.53,6.55-.14,37.09,0,74.19,0,111.28-.17,2.9.79,6-1.37,8.55C84.06,236,68.22,235.86,52.39,235.5Z" style="fill:#eb1820"/><path d="M100.16,235.1a26.83,26.83,0,0,1,.17-8.1q0-55.73,0-111.45l-.57-6.49c1.46-2.36,4-3.33,6.18-4.71a1.59,1.59,0,0,1,2-.29c1.13,2.88.39,6.14,1.86,9a110.56,110.56,0,0,1,.57,14.44c-.06,32.56.12,65.12-.1,97.68,0,1.67-.25,3.47,1,4.74,1.71,1.75.17,3.22-.09,4.81a1.11,1.11,0,0,1-1.07,1C106.76,235.46,103.39,236.41,100.16,235.1Z" style="fill:#f9c80e"/><path d="M245.68,235.46q0-61.59,0-123.18a27.07,27.07,0,0,1,.42-3.45l5,3.36c-2.94-.06-4.59.06-3.07,4.12,1.87,5,1,10.54.45,15.76a80.07,80.07,0,0,0-.69,8.87c0,26.07.08,52.15-.11,78.23,0,3.82,1.32,7.47-.24,11.64-1.4,3.73,2.76,3.38,5.33,3.44a2.1,2.1,0,0,1,3,0c10.63,0,21.25,0,31.87,0,2.35,0,4.73-.07,4-3.31-1.81-8.06-.63-16.19-.84-24.29-.23-8.79,0-17.59,0-26.39a65.3,65.3,0,0,0,0-18c.65-5.61-1.46-11.44,1.61-16.89.8-1.41-2.72-3.43.19-5.07,1.45,1.69,1.1,3.77,1.1,5.71.06,28.23,0,56.45.18,84.67,0,3.78-.75,5.54-5,5a104.31,104.31,0,0,0-10.92-.34,264.28,264.28,0,0,1-31,0Z" style="fill:#e8198a"/><path d="M100.16,235.1l10.6.09c2-1.61,4.35-1.32,6.64-1.33,9.91,0,19.81,0,29.71,0,1.23,0,2.46-.07,3.69-.06,12.56-.17,25.14.6,37.67-.93,1.51-.19,3-.2,4-1.53,1.36-2.15.85-4.55.85-6.84q.06-68.94,0-137.87a29.17,29.17,0,0,0-.17-4.07,6.52,6.52,0,0,1,.06-1.46,31,31,0,0,0,.42-4.09l.09-.67c.19-1.76-2.23-2.25-2-4A12.07,12.07,0,0,1,197.87,77c0,.46,0,.92-.05,1.38a50.09,50.09,0,0,0-.55,9.94q0,68.66,0,137.33a49.66,49.66,0,0,0,.62,8.44l-.33,1.49c-11.09.89-22.21.47-33.32.5q-53,.14-106.07.05c-1.91,0-4,.71-5.76-.6Z" style="fill:#b3ce47"/><path d="M148,235.08l-37.24.11a7.26,7.26,0,0,0,.06-.93,8.17,8.17,0,0,1,4.93-1.44c8.21.16,16.42,0,24.62.09,2.42,0,4.29-.34,4.31-3.3a14.86,14.86,0,0,1,.37-1.76,28.18,28.18,0,0,0,.32-7c-.08-44.63.22-89.27-.14-133.9a18.14,18.14,0,0,1,.11-2c-.23-.9.82-2.15-.72-2.7-.27.25-.53.47-.81.69a3.28,3.28,0,0,1-2.84.51,5.27,5.27,0,0,1-1.75-.68l-.41-.48a46.47,46.47,0,0,1,9-5.93,3,3,0,0,1,2,2c.68,1.94.37,4,.37,5.93.08,48-.1,96,.1,144C150.3,230.85,150.51,233.43,148,235.08Z" style="fill:#f7c71e"/><path d="M148.81,77.3c-.34-.3-.68-.6-1-.89l3-2.09c2.43-.76,5.26-.93,5.92-4.18l10.72-7c5.35-1.76,9.62-.3,12.69,3.83.37,2.59-5.87,1.44-2.34,5.32a5,5,0,0,1-4.7,2.18c-6.09-.17-11.68,1.7-17,4.37C153,80.44,150.82,79.79,148.81,77.3Z" style="fill:#adcd2f"/><path d="M288.74,326.26c-3.17,4.13-7.68,3.35-11.78,2.73-9.95-1.5-19.75-.16-29.59.83-5.42.54-10.84.87-16.27-.34-4-.89-8.06-2.19-12.14-.25.33-3.11,2.75-1.7,4.2-1.71q23.18-.18,46.37-.07c6.5,0,12.93-.24,19.2-2.12.32.21.43.41.33.62S288.85,326.26,288.74,326.26Z" style="fill:#222021"/><path d="M209.77,305.22c.82-1.07,2-1,3.17-1l58.22.17c-12,.92-24.08.21-36.13.46C226.61,305,218.19,305.09,209.77,305.22Z" style="fill:#2a272a"/><path d="M247,235.38l31,0A187.17,187.17,0,0,1,247,235.38Z" style="fill:#ec1991"/><path d="M132.82,86.52l1.85-1.37.72.1c2.82,1.14,6.35,1.39,6.83,5.46-2.1,3-4.34.71-6.54.18C133.18,90.45,131.11,89.72,132.82,86.52Z" style="fill:#f7c906"/><path d="M119.75,95.15a22.88,22.88,0,0,1,7.09-4.81l.62.44c1.48,1.85,1.41,3.82-.24,5.33-2.26,2.08-4.93,1.08-7.47.39A.94.94,0,0,1,119.75,95.15Z" style="fill:#f9c61a"/><path d="M132.82,86.52c.12,1.87-.13,4.11,3,2.8,2.07,1.45.95,2.51-.57,3.15-1.8.75-4.15,2.86-5.48.2-.76-1.51-2-1.26-2.73-2.16l-.18-.17A16.77,16.77,0,0,1,132.82,86.52Z" style="fill:#f9c61a"/><path d="M119.75,95.15l.06,1.17c-2.11,4.66-6.62,6.25-10.7,8.4a1.6,1.6,0,0,1-1.29-.4l-1.87,0C110.19,100.74,115,98,119.75,95.15Z" style="fill:#f6c81c"/><path d="M203.76,82.31l-2-3c2.21.09,3.69,1.43,5.06,3-1.2,1.62.91,3.54-.62,5.27-2.63-.86-.39-4.12-2.43-5.21Z" style="fill:#199ed5"/><path d="M156.71,70.14c.77,5.27-2.81,4.39-5.92,4.18Z" style="fill:#b1cc3d"/><path d="M280.87,132.17c-3.26.44-4.85-1.58-6.06-4.14A16.84,16.84,0,0,1,280.87,132.17Z" style="fill:#df2c91"/><path d="M285.73,135.31c-1.81-.78-5.36,1.14-4.88-3.17A11.59,11.59,0,0,1,285.73,135.31Z" style="fill:#df2c91"/><path d="M294.7,324.29l-1,.92a3.91,3.91,0,0,1-4.28-.13l6.28-2.95Z" style="fill:#222021"/><path d="M134.67,85.15a9.72,9.72,0,0,1,4.14-2.81l.14.17c.42,3.41-1.65,3.38-4,2.92Z" style="fill:#f7c819"/><path d="M289.41,325.08l4.28.13c-1.36,1.7-3.29.72-4.95,1.05,0-.31,0-.62,0-.93A.47.47,0,0,1,289.41,325.08Z" style="fill:#1d191a"/><path d="M189.05,427.47c.08,6.19-1.46,11.89-5.38,16.77-6.07,7.55-15.8,7.48-21.85-.08-7-8.75-7.24-24.28-.5-33.25,6.59-8.77,17-8.54,23.35.48C188.07,416.24,189.14,421.69,189.05,427.47Z" style="fill:#1d1d1b;opacity:0.85"/><path d="M255.74,234.25h-3L248,231.88h38.13c-.68,2-2.25,1.33-3.37,1.34-7.46.07-14.92,0-22.38.06C258.81,233.29,257,232.73,255.74,234.25Z" style="fill:#ed198b"/><path d="M273.68,139a3.76,3.76,0,0,1,3.87.87c1.48,1.23,3.22,2.32,3.77,4.34.06.22-.58.93-.86.9-2.29-.19-3.76-1.7-5-3.42C274.84,140.9,274.38,140.07,273.68,139Z" style="fill:#f41590"/><path d="M290.73,162.29a33.51,33.51,0,0,1,0,18Z" style="fill:#ea188a"/><path d="M240.76,108.31c2.27,2,1,4.62,1,7-1.73,1.65-1,3.78-1,5.68q-.07,49.94,0,99.87v6.24c-1.46-2.4-1-4.08-1-5.67q-.06-51.93,0-103.86C239.76,114.44,239.74,111.32,240.76,108.31Z" style="fill:#189fdd"/><path d="M241.75,229.26c1.4,2.24.25,3.71-1.85,3.47-9.29-1.06-18.59-.16-27.87-.45-2.18-.07-4.05-.3-4.26-3Z" style="fill:#199cdb"/><path d="M238.75,105.31l1,2c-3.57-.28-7.37.11-9.84-3.38-.47-.66-1.26-1.35-.42-2.1.37-.33,1.21-.22,1.83-.19C234.32,101.8,235.87,104.89,238.75,105.31Z" style="fill:#189edb"/><path d="M210.77,94.31c-.81-1-1.68-2-2.41-3.1-.59-.87-.16-1.58.7-2,.63-.28,1.6-1.32,2-.18,1,3.09,2.87,1.94,4.73,1.26a3.6,3.6,0,0,1,0,4,6.68,6.68,0,0,1-4,1C211.43,95,211.1,94.65,210.77,94.31Z" style="fill:#189cdd"/><path d="M289.19,342.86c-1.19-.08-1.31-.72-1.26-1.39s.67-1.07,1.37-1.06,1.22.58,1,1.26C290.07,342.19,289.47,342.56,289.19,342.86Z" style="fill:#090909"/><path d="M197.86,234.05c-1.57-1.31-.88-3.1-.89-4.67q0-72.91,0-145.82c0-1.75-.69-3.68.83-5.22.79,1.35,1.85,2.34.61,4.35-.93,1.51-.63,3.86-.64,5.84,0,45.77,0,91.53-.16,137.3C197.62,228.59,200.29,231.28,197.86,234.05Z" style="fill:#199ed5"/><path d="M203.78,82.33c-5.71,22.72-2.35,45.84-2.89,68.77s-.1,45.92-.15,68.88c0,1.72.53,3.54-1,6.11v-5.8c0-40.93.07-81.86-.09-122.79,0-4.46,1.94-8.7.77-13.31-.57-2.26,2.45-.74,3.31-1.88Z" style="fill:#199ed5"/><path d="M215.76,94.31v-4C218.35,91.65,217.15,93,215.76,94.31Z" style="fill:#179dd7"/><path d="M193.78,233.26c-.45.47-.89,1.34-1.33,1.34-13.86,0-27.71,1.2-41.58.51.28-2.37,2.36-2.56,4-3.14,6.77-2.44,13.74-2,20.7-1.19,1.41.17,2.75.9,4.59.35a75.65,75.65,0,0,0-16.06-.85c-3.44.09-4.94-.8-4.92-4.81q.38-61.15,0-122.32a84.49,84.49,0,0,0-1.51-16.76c-.55-.61-1.27-1-1.85-1.58a3,3,0,0,1-.66-1.39c.14-4.46,2.27-6.33,8.37-7.13,3.87-.52,7.85-.05,11.63-1.3,2,.82,1,2.79,1.56,4.16.42,1.37-.37,3,1.05,4.17,4.9.34,6.15,2.87,6.12,7.75-.21,43.29-.13,86.58-.09,129.88,0,1.73-.88,4,1,5.07a7.88,7.88,0,0,0,4.73,1c1.65-.22,2-2.06,2.16-3.56a37.9,37.9,0,0,0,.06-4c0-36.3-.08-72.6.09-108.9,0-5.85-.93-11.56-1.14-17.36-.11-3.37.63-6.58,1.06-9.85,1.66-.21,2.38.65,2.47,2.2q0,71.43,0,142.84C194.24,230,194.66,231.7,193.78,233.26Z" style="fill:#adcd2f"/><path d="M175.78,75.32c-1.88,1.5-4,2.47-6.41,2-4.32-.85-8.1,1.06-12.08,2.08-2.66.68.52,3.22-1.5,3.94-1.88.19-4.8-1.45-4.52,2.58q0,68.68-.05,137.33c-.05.66,1.07,0,.41.08-.3,0-.34-.35-.34-.74q.06-67.9,0-135.82a6.36,6.36,0,0,1,.31-2.45c2.37-1,2.95.64,3.34,2.34a22.4,22.4,0,0,1,.24,5q0,64.15,0,128.31a26.35,26.35,0,0,1-.5,6.93c.32.95-1.15,2.13.35,2.94,1.53-1,1-2.58,1.3-4,.09-44.64,0-89.25.06-133.87,0-2.61-.56-5.38,1.39-7.66a2,2,0,0,1,2,2.37c-.5,5.83,1,11.56,1,17.35q.09,58.69,0,117.38c0,7.84,0,7.84,8.14,7.84,3.5,0,7,0,10.49,0,1.62,0,4.07-.87,3.89,2.18s-2.76,1.8-4.18,1.7c-3.88-.27-7.39-2.23-11.54-2a41.6,41.6,0,0,0-16.72,4l-2.87,0c1-2,.78-4.22.78-6.37l0-151.41c4,2.42,7.16.15,10.7-1.59,5.69-2.81,12.22-2,18.27-3.39l2,1c.86,1.26.31,2.07-.86,2.68A3.15,3.15,0,0,1,175.78,75.32Z" style="fill:#aecd2c"/><path d="M177.78,83.32c-2.67-.33-1.81-2.43-2-4a14.83,14.83,0,0,1,4.36-2.64,5.5,5.5,0,0,1,3.64.64c2-.09,3.63.34,4,2.63.15.92,1.16,1.87.36,2.73-1.06,1.15-2,.17-3-.45C182.39,80.42,179.63,78.77,177.78,83.32Z" style="fill:#acce2b"/><path d="M188.17,74.27c-1.84-1.56-4.24-.52-5.08-2.8-.31-.83.46-1.62,1.42-1.58C186.73,70,187.72,71.39,188.17,74.27Z" style="fill:#adcc2b"/><path d="M191.78,82.31c.67-2-1.63-5,2-6a5.87,5.87,0,0,1,0,5h0C193.33,82.1,192.87,82.85,191.78,82.31Z" style="fill:#a8d125"/><path d="M183.78,77.32h-4c-.88-.39-1.53-.9-1-2a2.06,2.06,0,0,0,1-2Z" style="fill:#adcd2f"/><path d="M191.78,82.31l2-1c.33,1,.66,2,1,3-.33.47-.66.49-1,0l-2-1Z" style="fill:#a9ce36"/><path d="M55.84,233.26c-2.91-1.57-2.1-3.76-1-6,1-.51,1.89,0,2.79.36,1.22.45,2.55,1.2,3.69.19,1.65-1.44-.59-2.56-.56-3.92-.28-4.17-.9-8.35.53-12.44a9.41,9.41,0,0,0,2.1-6.44c0-12.61.35-25.23-.2-37.82-.25-5.73-.23-11.55-1.35-17.24-.64-.78-1.43-1.43-2-2.24-.79-1.54.54-2.34,1.26-3.27,1.45-1.85.1-2.46-1.23-3.15.87-3,.7-7.21,6-4.26,1.56.87,2.63-.91,3.23-2.35,1.56-3.68,1.92-4,4.74-4.38a14,14,0,0,1,5,0c1.68.08,2.78-1.13,3.9-2s4-.16,3.51-2.59c-.39-2-2.55-2.36-4.76-2.62,1.28-1,2.32-1.56,3.61-.9,2.44,1.24,4.81,2.69,2.37-2-.92-1.76.73-1.79,1.9-1.77,4.7.08,4.7.09,7.61-2.57,1.56,1.52.81,3.45.81,5.15q.07,50.92,0,101.86c0,1.17,0,2.34,0,3.5.46,7.92.47,8-7.8,7.91-4.8,0-9.56.1-14.38-.82a30.33,30.33,0,0,0-12.82.82C60.61,233.15,58.1,234.13,55.84,233.26Z" style="fill:#f0151f"/><path d="M59.84,141.29c1.34-.66,2.73-1.38,3.64.54.68,1.43,0,2.51-1.24,3.22a4.85,4.85,0,0,0-2.4,2.24c1.79,2.12,1.4,4.69,1.39,7.15-.07,21.71.28,43.43-.35,65.14-.06,1.9-.66,4,1,5.68,1.38.12,2.26.81,1.74,2.23a3.41,3.41,0,0,1-3.5,2.18c-2-.07-3.63-1.31-5.24-2.41-1.63-1.47-1-3.42-1-5.17q0-38.57.11-77.14c0-.55.56-1.1.86-1.66a6.72,6.72,0,0,1,3,2C60.52,145,59.65,142.86,59.84,141.29Z" style="fill:#f01522"/><path d="M100.34,115.55a32.38,32.38,0,0,1,.46,3.9q0,51.83,0,103.66a32,32,0,0,1-.47,3.89,33.43,33.43,0,0,1-.36-3.44q0-52.27,0-104.57A30.89,30.89,0,0,1,100.34,115.55Z" style="fill:#fac70b"/><path d="M57.84,145.29c-1.46,0-2.91,0-3-2,.48-.84,1-2,2.12-1.5C58.48,142.48,57.61,144.09,57.84,145.29Z" style="fill:#f6131a"/><path d="M78.83,130.3a4.11,4.11,0,0,1-5,0C75.5,128.31,77.17,128.33,78.83,130.3Z" style="fill:#f81324"/><path d="M55.84,233.26a8.76,8.76,0,0,1,7,1C60.51,233.88,58,235.17,55.84,233.26Z" style="fill:#f01522"/><path d="M108.8,104.3l11-8a6.92,6.92,0,0,1,2.27-.68c5.45.42,5.73.16,4.93-5.13,1,.72,4.27-2.63,3.33,1.85-.16.77,1.1.83,1.45.37,1.09-1.46,4.72.07,4-3.41,2,0,3.48,3.82,6,1,3.62-1.56,4.46.53,4.47,3.5q0,65.79,0,131.56c0,1.3.33,2.67-.47,3.89h0c-.15,3.68-2,4.62-5.66,4.6-8.1-.06-16.23-.74-24.32.39h-5c-.5,0-1.1.12-1.47-.11-1.29-.78-.09-.79.36-.88,1.27-.26,2.62-1.76,1.17-1.9-4.9-.49-2.08-3.28-2.08-5.24,0-.83,0-1.66,0-2.49q0-51.78.05-103.57c0-2.92-1.42-5.84-.06-8.76-.08-1.75,0-3.38,2.38-3.43C109,107.65,108.82,106,108.8,104.3Z" style="fill:#fac70b"/><path d="M102.82,167.19c.37-15.17-.56-34,.36-52.77.06-1.29-.7-3.31.92-3.29,2.5,0,.83,2.05.89,3.32,1.92,37.09.3,74.19.77,111.29,0,2,1.06,5.63-1,5.66-3.22,0-1.85-3.6-1.86-5.62C102.77,207.46,102.82,189.14,102.82,167.19Z" style="fill:#fac70b"/><path d="M108.8,104.3c2.35,2.33,2.41,4.67,0,7-3.21-1.92-.77-4.65-1-7Z" style="fill:#f6ca07"/><path d="M193.77,84.32h1q0,71.88,0,143.76c0,1.75.66,3.7-1,5.18Q193.78,158.79,193.77,84.32Z" style="fill:#adcc31"/><path d="M193.78,81.32c0-1.67,0-3.34,0-5A3.37,3.37,0,0,1,193.78,81.32Z" style="fill:#adcc31"/><path d="M145.8,229.26q0-62.55-.06-125.1c0-2.07,1.46-5.22-3-5.36-1.39,0-1.21-2.15.39-2.09,3.12.11,2.65-1.92,2.57-3.64-.12-2.44-1.93-2.81-3.92-2.76-1.42-2.86-5-2.62-6.88-4.88,1.7-.48,3.47-.86,4-2.92l1.85-.18c1,2.18,2,2.65,3,0v-1c1.49-1.14,2.24-.09,3,1q0,70.89,0,141.77C146.77,225.83,147.43,227.79,145.8,229.26Z" style="fill:#f9c80e"/><path d="M115.82,234.25c4.39-2.1,9.05-.61,13.58-.94a54.56,54.56,0,0,1,9.9,0c3.45.37,5.5-.85,6.5-4.07.84,3.87-.22,5.35-4.63,5.12C132.74,233.94,124.27,234.25,115.82,234.25Z" style="fill:#f9c80e"/><path d="M143.8,82.31c1.74,2,0,2.7-1.35,2.83-2,.19-2.54-1-1.65-2.81A2.69,2.69,0,0,0,143.8,82.31Z" style="fill:#fac70b"/><path d="M146.79,82.31l-3-1c.48-.85,1-1.94,2.14-1.55S146.68,81.4,146.79,82.31Z" style="fill:#fac70b"/><path d="M156.79,228.26c1.37,2.36.42,3.17-2,3-.53-.57-1.64-.85-1-2-1.58-2.75.1-5.49.1-8.24-.13-43.78-.08-87.56-.16-131.34,0-1.86,1.35-4.55-1.94-5.36-.6-.06-.62-.71-1-1,1.67-4.11,3.33-1.18,5,0v1c1.55,2.07,1,4.49,1,6.76Q156.82,159.68,156.79,228.26Z" style="fill:#abcf31"/><path d="M156.79,228.26c-1.33-2.12-1-4.49-1-6.8q0-68.57,0-137.14h2q0,69.12,0,138.26C157.76,224.49,158.52,226.61,156.79,228.26Z" style="fill:#aecc31"/><path d="M178.78,75.32l1,2c-.33,2.67-2.43,1.81-4,2-1-1.34,0-2.67,0-4Z" style="fill:#adcc31"/><path d="M150.8,83.31l1,1V226h-1Z" style="fill:#adcd2f"/><path d="M153.79,229.26c.34.67.67,1.33,1,2-.87-.1-2.07.3-2.44-.76S153.1,229.45,153.79,229.26Z" style="fill:#adcd2f"/><path d="M61.84,148.29c1.76.2,1.91,1.42,2,2.87,1.25,18.42,1.06,36.87.88,55.32,0,1.73,1,5-2.89,4.79-1.32-1.36-1-3.1-1-4.71q0-26.77,0-53.56C60.86,151.39,60.52,149.65,61.84,148.29Z" style="fill:#f01522"/><path d="M61.84,148.29v77c-.3.86-.65,2.48-1.65.84-.68-1.12-.34-2.91-.34-4.4q0-37.2,0-74.41A2.07,2.07,0,0,1,61.84,148.29Z" style="fill:#ed171c"/><path d="M94.23,123.61c-1,2.22-2.43,1.53-4.33,1.36C91.28,122.75,92.68,123.43,94.23,123.61Z" style="fill:#eb1820"/><path d="M141.35,94.22c-.2,1-1.06,1-1.86,1s-1.56-.55-1.46-1.55.9-1.29,1.78-1.11A1.77,1.77,0,0,1,141.35,94.22Z" style="fill:#fac515"/><path d="M295.69,322.13c10.64-7.17,18-16.61,20.51-29.46a51.9,51.9,0,0,0,.64-9.95q0-75.21.12-150.42c0-2.91-.63-4.81-3.25-6.55Q245.22,80,176.93,33.86c-3.17-2.14-5.17-2.07-8.29,0q-68.07,46-136.35,91.62a7.19,7.19,0,0,0-3.64,6.87c.13,50.14.41,100.28,0,150.42-.2,24.51,19.19,45.79,44.62,44.77,17-.68,34,0,51-.19,3.78,0,5,1.14,4.9,4.79a180.85,180.85,0,0,1-1.6,20.41c-.38,2.89-1.66,3.7-4.57,3.67-17.82-.14-35.64.17-53.46-.11C32,355.56.45,324,.18,286.09c-.38-54.81,0-109.62,0-164.42,0-6,2.44-10.42,7.46-13.78q77.79-52,155.5-104.22c7.25-4.87,12.13-4.89,19.28-.09q33.78,22.68,67.56,45.34c1.18.79,2.36,2.49,3.84,1.76s.68-2.72.69-4.12c.06-10-.06-20,0-30,.11-9.27,5.86-15.33,14.2-15.29s14.08,6.28,14.13,15.44c.08,16.49.15,33-.07,49.48,0,3.64,1.18,5.69,4.12,7.63,16.67,11,33.12,22.33,49.84,33.23,6.06,4,8.8,8.93,8.79,16.14q-.16,80.7,0,161.42c0,2,.31,4-.61,5.9-1.28-.82-1.21-2.21-1.68-3.54.85,8.94-3.31,15.91-8.47,22.58s-12.47,8.38-19.85,10.36c-5.43,1.46-11,2.58-16,5.17-1.39.71-3.12,1.49-4.45-.39C294,323.45,294.91,322.82,295.69,322.13Z" style="fill:#fff"/><path d="M217.29,356.27l73.65,0c35.85-8,41.31-22.78,41.31-22.78,16.54-23.19,12.61-42.92,12.61-42.92-11.07,22.73-36.07,35.73-36.07,35.73-24.62,1.56-39.26,1.19-39.26,1.19L219,329.23Z" style="fill:#fff"/><path d="M340.79,268.26c-8.89,19.09-31.47,37.13-31.47,37.13-4.5,15.51-35.64,23.5-35.64,23.5,33.55,22.59,60.09-18.43,60.09-18.43l6.64-19.83Z" style="fill:#fff"/></g></g></svg>