<svg xmlns="http://www.w3.org/2000/svg" version="1.1" viewBox="-5.0 -10.0 110.0 135.0">
 <path d="m67.023 51.629c-11.566 7.8438-14.043 14.312-16.453 20.613-0.46484 1.2148-0.92578 2.4219-1.3945 3.5-0.035156 0.085937-0.0625 0.17187-0.078125 0.25781h-0.003906c-0.28125 1.6211-0.45703 3.2773-0.47266 4.9922-0.011719 1.3867 0.078125 2.7891 0.29688 4.2109-1.2695 0.35156-2.3789 0.46875-3.3359 0.38281-2.1016-0.18359-3.5352-1.3789-4.4805-3.1523-1.0352-1.9453-1.5195-4.5781-1.6523-7.3945-0.26172-5.5703 0.86328-11.766 1.8789-15.008 0.1875-0.60156-0.14844-1.2422-0.75391-1.4336-0.19922-0.0625-0.40234-0.066406-0.59375-0.023437-5.1836 0.96875-10.691 1.2148-15.773 0.66406-4.6172-0.5-8.8672-1.6523-12.164-3.5078-0.78125-1.5938-1.1562-3.2852-0.94531-4.8594 0.19141-1.4258 0.87891-2.7695 2.2109-3.8672 0.4375-0.35938 0.53906-0.97266 0.26562-1.4492l0.003906-0.003907c-0.10547-0.17969-0.19141-0.33984-0.26172-0.48047-0.84375-1.6367-1.2461-3.3438-0.98438-4.8711 0.24609-1.4531 1.1211-2.7812 2.8359-3.7617 0.13281-0.074219 0.24609-0.14062 0.33984-0.1875 0.53516-0.27734 0.76172-0.91797 0.52734-1.4648-0.90234-2.5234-1.082-4.6055-0.58203-6.2773 0.48047-1.6094 1.6328-2.8789 3.418-3.8242 0.52344-0.27344 0.74219-0.89453 0.53125-1.4297h0.003906c-0.72656-1.8398-0.84375-3.4102-0.37109-4.7305 0.45312-1.2656 1.4688-2.3594 3.0195-3.2812 21.645-1.9922 29.312-0.17969 39.309 2.1875 1.7617 0.41797 3.5977 0.85156 5.6602 1.3008zm21.25 1.8828h-18.273c-0.1875 0-0.35547-0.078125-0.48047-0.19922-0.125-0.125-0.19922-0.29688-0.19922-0.48047l-0.003906-36.551c0-0.1875 0.078125-0.35547 0.19922-0.48047 0.125-0.125 0.29688-0.20312 0.48047-0.20312h18.273c0.1875 0 0.35547 0.078125 0.48047 0.20312s0.20312 0.29688 0.20312 0.48047v36.547c0 0.1875-0.078125 0.35547-0.20312 0.48047s-0.29688 0.19922-0.48047 0.19922z" fill-rule="evenodd"/>
<text x="0.0" y="117.5" font-size="5.0" font-weight="bold" font-family="Arbeit Regular, Helvetica, Arial-Unicode, Arial, Sans-serif" fill="#000000">Created by Ahmad Ishaq</text><text x="0.0" y="122.5" font-size="5.0" font-weight="bold" font-family="Arbeit Regular, Helvetica, Arial-Unicode, Arial, Sans-serif" fill="#000000">from Noun Project</text></svg>